<?xml version="1.0" encoding="UTF-8" standalone="no"?>
<svg
   version="1.1"
   viewBox="-5.0 -10.0 110.0 135.0"
   id="svg2"
   sodipodi:docname="noun-shirt-6738741 (1).svg"
   inkscape:version="1.4 (86a8ad7, 2024-10-11)"
   xmlns:inkscape="http://www.inkscape.org/namespaces/inkscape"
   xmlns:sodipodi="http://sodipodi.sourceforge.net/DTD/sodipodi-0.dtd"
   xmlns="http://www.w3.org/2000/svg"
   xmlns:svg="http://www.w3.org/2000/svg">
  <defs
     id="defs2">
    <linearGradient
       id="0"
       x1="24.200001"
       y1="47.592999"
       x2="25.627001"
       y2="0"
       gradientUnits="userSpaceOnUse"
       gradientTransform="matrix(1.2312492,0,0,1.2312492,45.894736,65.900033)">
      <stop
         stop-color="#74cb32"
         id="stop2413" />
      <stop
         offset="1"
         stop-color="#abeb6b"
         id="stop2415" />
    </linearGradient>
  </defs>
  <sodipodi:namedview
     id="namedview2"
     pagecolor="#505050"
     bordercolor="#eeeeee"
     borderopacity="1"
     inkscape:showpageshadow="0"
     inkscape:pageopacity="0"
     inkscape:pagecheckerboard="0"
     inkscape:deskcolor="#505050"
     inkscape:zoom="3.1666667"
     inkscape:cx="29.842105"
     inkscape:cy="48.473684"
     inkscape:window-width="1920"
     inkscape:window-height="1057"
     inkscape:window-x="1672"
     inkscape:window-y="-8"
     inkscape:window-maximized="1"
     inkscape:current-layer="svg2" />
  <path
     d="m 13.978624,62.423413 h 39.183419 v -34.76471 c 0,-0.734888 0.602113,-1.336996 1.336994,-1.336996 0.197617,0 0.385969,0.04631 0.561973,0.126602 l 9.080879,3.415053 4.949663,-13.169169 -24.081558,-9.0595361 c -0.96342,1.9298457 -2.411555,3.5817611 -4.165363,4.7983681 -2.07189,1.429637 -4.569842,2.269509 -7.265492,2.269509 -2.695648,0 -5.199767,-0.836788 -7.265492,-2.269509 C 24.550512,11.216418 23.111626,9.5645026 22.148284,7.6346569 L -1.9514534,16.694193 2.9982099,29.863362 12.174734,26.417403 c 0.688567,-0.259368 1.454299,0.08646 1.716813,0.775028 0.05558,0.157476 0.08646,0.314954 0.08646,0.466249 z m 10.622287,-55.8235236 0.08027,-0.030876 7.549587,-2.7512191 v -5.0083151 l 0.09262,-0.3087724 0.07719,-0.1543855 0.01236,-0.04632 0.07719,-0.1235102 0.24702,-0.2470203 0.172913,-0.1080737 0.154388,-0.077197 0.339656,-0.1019026 h 0.123511 l 0.04631,0.024706 h 0.03088 c 0.673131,-0.00931 1.281425,-0.2840781 1.722981,-0.7194512 0.45081,-0.4508108 0.728715,-1.0683943 0.728715,-1.7538867 0,-0.6885674 -0.277897,-1.3030048 -0.728715,-1.7538869 -0.450811,-0.4909506 -1.065312,-0.7688549 -1.753886,-0.7688549 -0.688577,0 -1.303006,0.2778963 -1.753888,0.7287152 -0.45081,0.4508106 -0.728715,1.0683943 -0.728715,1.7538866 0,0.7348888 -0.602114,1.3369949 -1.336995,1.3369949 -0.734888,0 -1.336994,-0.602114 -1.336994,-1.3369949 0,-1.4234718 0.57741,-2.7110623 1.509948,-3.6435755 C 30.862878,-9.4225643 32.150469,-10 33.573941,-10 c 1.42347,0 2.711062,0.577412 3.643576,1.5099489 0.932512,0.9325132 1.509949,2.2201037 1.509949,3.6435754 0,1.423472 -0.577414,2.7110625 -1.509949,3.6435752 -0.63299,0.63298901 -1.414226,1.09922156 -2.300417,1.3369942 v 3.6929815 l 7.549587,2.7512169 0.08028,0.030876 c 0.188347,-0.3643579 0.364353,-0.7441539 0.50639,-1.1301315 0.25937,-0.6885657 1.02824,-1.0344031 1.716815,-0.775028 l 26.517775,9.9582964 c 0.688566,0.259367 1.034404,1.028238 0.775028,1.716814 l -5.888341,15.667043 c -0.259376,0.688566 -1.028238,1.034403 -1.716813,0.775028 L 55.84333,29.579014 v 34.171859 c 0,0.73489 -0.602114,1.336996 -1.336995,1.336996 l -41.863888,-0.0031 c -0.734889,0 -1.336994,-0.602113 -1.336994,-1.336995 V 29.584631 L 2.6909422,32.826807 C 2.0023747,33.086176 1.2366421,32.740346 0.9741283,32.051779 l -5.888342,-15.673367 c -0.2593678,-0.688568 0.089544,-1.454299 0.7750286,-1.716813 L 22.381751,4.6946074 c 0.688568,-0.2593665 1.454299,0.086456 1.716814,0.775029 0.148212,0.3952331 0.314954,0.7657651 0.503306,1.1301294 z m 16.340521,2.2540939 c -0.49095,0.5125706 -1.028238,0.9788334 -1.611841,1.3925637 -1.627253,1.130131 -3.612667,1.787799 -5.755541,1.787799 -2.142876,0 -4.125287,-0.663865 -5.755544,-1.787799 C 27.23492,9.8420504 26.688375,9.3757709 26.206665,8.8539833 L 33.57405,6.1738295 Z"
     fill-rule="evenodd"
     id="path1"
     style="stroke-width:0.790466" />
  <circle
     r="29.54998"
     cy="95.45002"
     cx="75.44471"
     fill="url(#0)"
     id="circle2420"
     style="fill:url(#0);stroke-width:1.23125" />
  <g
     transform="matrix(0.06252284,0,0,0.06252284,58.20723,78.212525)"
     fill="#283d16"
     id="g2424">
    <path
       d="m 413.69,0 c 0,0 -45.37,44.01 -94.43,61.759 -363.33,131.42 -210.1,387.52 -205.1,388.36 0,0 20.374,-35.48 47.896,-55.717 174.64,-128.39 210.14,-276.17 210.14,-276.17 0,0 -39.19,177.83 -194.56,288.48 -34.32,24.426 -57.55,84.57 -67.39,144.68 0,0 24.325,-9.828 34.785,-12.49 4.079,-26.618 12.607,-52.11 27.03,-74.875 217.15,25.854 288.27,-149.12 297.56,-210.14 21.929,-144.1 -55.928,-253.89 -55.928,-253.89"
       id="path2422" />
  </g>
</svg>
